<svg width="16" height="16" viewBox="0 0 16 16" fill="none" xmlns="http://www.w3.org/2000/svg">
<path d="M8.49989 4.9999V7.71677L10.7574 9.07115C10.8711 9.13944 10.953 9.25011 10.9851 9.37881C11.0173 9.5075 10.9969 9.64369 10.9286 9.7574C10.8603 9.87111 10.7497 9.95304 10.621 9.98515C10.4923 10.0173 10.3561 9.99694 10.2424 9.92865L7.74239 8.42865C7.66839 8.38419 7.60717 8.32134 7.56467 8.24621C7.52218 8.17107 7.49986 8.08622 7.49989 7.9999V4.9999C7.49989 4.86729 7.55256 4.74011 7.64633 4.64635C7.7401 4.55258 7.86728 4.4999 7.99989 4.4999C8.13249 4.4999 8.25967 4.55258 8.35344 4.64635C8.44721 4.74011 8.49989 4.86729 8.49989 4.9999ZM13.9999 3.4999C13.8673 3.4999 13.7401 3.55258 13.6463 3.64635C13.5526 3.74011 13.4999 3.86729 13.4999 3.9999V5.1249C13.103 4.6649 12.698 4.22177 12.2424 3.76052C11.4085 2.92659 10.3474 2.35687 9.19165 2.12256C8.03587 1.88824 6.83666 1.99972 5.74388 2.44307C4.65109 2.88641 3.71318 3.64196 3.04735 4.6153C2.38151 5.58865 2.01727 6.73662 2.00014 7.9158C1.98302 9.09497 2.31376 10.253 2.95105 11.2453C3.58834 12.2376 4.50391 13.0201 5.58336 13.4949C6.66281 13.9698 7.85827 14.1161 9.02037 13.9154C10.1825 13.7148 11.2597 13.1761 12.1174 12.3668C12.1652 12.3216 12.2036 12.2675 12.2304 12.2075C12.2573 12.1476 12.2721 12.0829 12.2739 12.0172C12.2758 11.9515 12.2647 11.886 12.2412 11.8246C12.2178 11.7632 12.1825 11.707 12.1374 11.6593C12.0922 11.6115 12.0381 11.5731 11.9781 11.5462C11.9182 11.5194 11.8535 11.5046 11.7878 11.5027C11.7221 11.5009 11.6567 11.512 11.5953 11.5354C11.5338 11.5588 11.4777 11.5941 11.4299 11.6393C10.7149 12.3131 9.81728 12.7613 8.84909 12.928C7.88089 13.0947 6.88504 12.9725 5.98589 12.5766C5.08674 12.1807 4.32415 11.5287 3.79333 10.702C3.26252 9.87533 2.98701 8.91058 3.00121 7.92824C3.01541 6.9459 3.31869 5.98951 3.87318 5.17851C4.42767 4.3675 5.2088 3.73782 6.11901 3.36809C7.02923 2.99837 8.0282 2.90498 8.99117 3.0996C9.95414 3.29422 10.8384 3.76822 11.5336 4.4624C12.0424 4.9774 12.488 5.47365 12.9374 5.9999H11.4999C11.3673 5.9999 11.2401 6.05258 11.1463 6.14635C11.0526 6.24011 10.9999 6.36729 10.9999 6.4999C10.9999 6.63251 11.0526 6.75968 11.1463 6.85345C11.2401 6.94722 11.3673 6.9999 11.4999 6.9999H13.9999C14.1325 6.9999 14.2597 6.94722 14.3534 6.85345C14.4472 6.75968 14.4999 6.63251 14.4999 6.4999V3.9999C14.4999 3.86729 14.4472 3.74011 14.3534 3.64635C14.2597 3.55258 14.1325 3.4999 13.9999 3.4999Z" fill="url(#paint0_linear_363_13090)"/>
<defs>
<linearGradient id="paint0_linear_363_13090" x1="14.4999" y1="2.00293" x2="1.99951" y2="2.00293" gradientUnits="userSpaceOnUse">
<stop stop-color="#DB3B5C"/>
<stop offset="0.465749" stop-color="#8937A5"/>
<stop offset="1" stop-color="#455AC7"/>
</linearGradient>
</defs>
</svg>
